STARTFONT 2.1
FONT -gbdfed-Unknown-Medium-R-Normal--16-120-96-96-P-100-ISO10646-1
SIZE 12 96 96
FONTBOUNDINGBOX 24 27 0 -6
COMMENT "Generated by fontforge, http://fontforge.sourceforge.net"
STARTPROPERTIES 10
FONTBOUNDINGBOX "16 25 0 -6"
POINT_SIZE 120
PIXEL_SIZE 16
RESOLUTION_X 96
RESOLUTION_Y 96
FONT_ASCENT 16
FONT_DESCENT 8
AVERAGE_WIDTH 100
SPACING "M"
_GBDFED_INFO "Edited with gbdfed 1.6."
ENDPROPERTIES
CHARS 169
STARTCHAR uni0000
ENCODING 0
SWIDTH 1187 0
DWIDTH 19 0
BBX 0 0 0 0
BITMAP
ENDCHAR
STARTCHAR uni0001
ENCODING 1
SWIDTH 1187 0
DWIDTH 19 0
BBX 0 0 0 0
BITMAP
ENDCHAR
STARTCHAR uni0002
ENCODING 2
SWIDTH 1187 0
DWIDTH 19 0
BBX 0 0 0 0
BITMAP
ENDCHAR
STARTCHAR uni0003
ENCODING 3
SWIDTH 1187 0
DWIDTH 19 0
BBX 0 0 0 0
BITMAP
ENDCHAR
STARTCHAR uni0004
ENCODING 4
SWIDTH 1187 0
DWIDTH 19 0
BBX 0 0 0 0
BITMAP
ENDCHAR
STARTCHAR uni0005
ENCODING 5
SWIDTH 1187 0
DWIDTH 19 0
BBX 0 0 0 0
BITMAP
ENDCHAR
STARTCHAR uni0006
ENCODING 6
SWIDTH 1187 0
DWIDTH 19 0
BBX 0 0 0 0
BITMAP
ENDCHAR
STARTCHAR uni0007
ENCODING 7
SWIDTH 1187 0
DWIDTH 19 0
BBX 0 0 0 0
BITMAP
ENDCHAR
STARTCHAR uni0008
ENCODING 8
SWIDTH 1187 0
DWIDTH 19 0
BBX 0 0 0 0
BITMAP
ENDCHAR
STARTCHAR uni0009
ENCODING 9
SWIDTH 1187 0
DWIDTH 19 0
BBX 0 0 0 0
BITMAP
ENDCHAR
STARTCHAR uni000A
ENCODING 10
SWIDTH 1187 0
DWIDTH 19 0
BBX 0 0 0 0
BITMAP
ENDCHAR
STARTCHAR uni000B
ENCODING 11
SWIDTH 1187 0
DWIDTH 19 0
BBX 0 0 0 0
BITMAP
ENDCHAR
STARTCHAR uni000C
ENCODING 12
SWIDTH 1187 0
DWIDTH 19 0
BBX 0 0 0 0
BITMAP
ENDCHAR
STARTCHAR uni000D
ENCODING 13
SWIDTH 1187 0
DWIDTH 19 0
BBX 0 0 0 0
BITMAP
ENDCHAR
STARTCHAR uni000E
ENCODING 14
SWIDTH 1187 0
DWIDTH 19 0
BBX 0 0 0 0
BITMAP
ENDCHAR
STARTCHAR uni000F
ENCODING 15
SWIDTH 1187 0
DWIDTH 19 0
BBX 0 0 0 0
BITMAP
ENDCHAR
STARTCHAR uni0010
ENCODING 16
SWIDTH 1187 0
DWIDTH 19 0
BBX 0 0 0 0
BITMAP
ENDCHAR
STARTCHAR uni0011
ENCODING 17
SWIDTH 1187 0
DWIDTH 19 0
BBX 0 0 0 0
BITMAP
ENDCHAR
STARTCHAR uni0012
ENCODING 18
SWIDTH 1187 0
DWIDTH 19 0
BBX 0 0 0 0
BITMAP
ENDCHAR
STARTCHAR uni0013
ENCODING 19
SWIDTH 1187 0
DWIDTH 19 0
BBX 0 0 0 0
BITMAP
ENDCHAR
STARTCHAR uni0014
ENCODING 20
SWIDTH 1187 0
DWIDTH 19 0
BBX 0 0 0 0
BITMAP
ENDCHAR
STARTCHAR uni0015
ENCODING 21
SWIDTH 1187 0
DWIDTH 19 0
BBX 0 0 0 0
BITMAP
ENDCHAR
STARTCHAR uni0016
ENCODING 22
SWIDTH 1187 0
DWIDTH 19 0
BBX 0 0 0 0
BITMAP
ENDCHAR
STARTCHAR uni0017
ENCODING 23
SWIDTH 1187 0
DWIDTH 19 0
BBX 0 0 0 0
BITMAP
ENDCHAR
STARTCHAR uni0018
ENCODING 24
SWIDTH 1187 0
DWIDTH 19 0
BBX 0 0 0 0
BITMAP
ENDCHAR
STARTCHAR uni0019
ENCODING 25
SWIDTH 1187 0
DWIDTH 19 0
BBX 0 0 0 0
BITMAP
ENDCHAR
STARTCHAR uni001A
ENCODING 26
SWIDTH 1187 0
DWIDTH 19 0
BBX 0 0 0 0
BITMAP
ENDCHAR
STARTCHAR uni001B
ENCODING 27
SWIDTH 1187 0
DWIDTH 19 0
BBX 0 0 0 0
BITMAP
ENDCHAR
STARTCHAR uni001C
ENCODING 28
SWIDTH 1187 0
DWIDTH 19 0
BBX 0 0 0 0
BITMAP
ENDCHAR
STARTCHAR uni001D
ENCODING 29
SWIDTH 1187 0
DWIDTH 19 0
BBX 0 0 0 0
BITMAP
ENDCHAR
STARTCHAR uni001E
ENCODING 30
SWIDTH 1187 0
DWIDTH 19 0
BBX 0 0 0 0
BITMAP
ENDCHAR
STARTCHAR uni001F
ENCODING 31
SWIDTH 1187 0
DWIDTH 19 0
BBX 0 0 0 0
BITMAP
ENDCHAR
STARTCHAR space
ENCODING 32
SWIDTH 625 0
DWIDTH 10 0
BBX 0 0 0 0
BITMAP
ENDCHAR
STARTCHAR exclam
ENCODING 33
SWIDTH 625 0
DWIDTH 10 0
BBX 1 15 4 0
BITMAP
80
80
80
80
80
80
80
80
80
80
80
00
00
00
80
ENDCHAR
STARTCHAR quotedbl
ENCODING 34
SWIDTH 625 0
DWIDTH 10 0
BBX 3 3 3 12
BITMAP
A0
A0
A0
ENDCHAR
STARTCHAR numbersign
ENCODING 35
SWIDTH 625 0
DWIDTH 10 0
BBX 7 7 1 4
BITMAP
28
28
FE
28
FE
28
28
ENDCHAR
STARTCHAR dollar
ENCODING 36
SWIDTH 625 0
DWIDTH 10 0
BBX 7 15 1 0
BITMAP
10
10
38
54
92
90
90
7C
12
12
92
54
38
10
10
ENDCHAR
STARTCHAR percent
ENCODING 37
SWIDTH 625 0
DWIDTH 10 0
BBX 9 9 0 3
BITMAP
4080
A100
4200
0400
0800
1000
2100
4280
8100
ENDCHAR
STARTCHAR ampersand
ENCODING 38
SWIDTH 625 0
DWIDTH 10 0
BBX 9 15 0 0
BITMAP
3000
4800
8400
8400
8400
8800
5000
2000
5000
8800
8400
8280
8100
8280
7C00
ENDCHAR
STARTCHAR quotesingle
ENCODING 39
SWIDTH 625 0
DWIDTH 10 0
BBX 1 3 4 12
BITMAP
80
80
80
ENDCHAR
STARTCHAR parenleft
ENCODING 40
SWIDTH 625 0
DWIDTH 10 0
BBX 5 21 2 -6
BITMAP
08
10
20
40
80
80
80
80
80
80
80
80
80
80
80
80
80
40
20
10
08
ENDCHAR
STARTCHAR parenright
ENCODING 41
SWIDTH 625 0
DWIDTH 10 0
BBX 5 21 2 -6
BITMAP
80
40
20
10
08
08
08
08
08
08
08
08
08
08
08
08
08
10
20
40
80
ENDCHAR
STARTCHAR asterisk
ENCODING 42
SWIDTH 625 0
DWIDTH 10 0
BBX 7 7 1 4
BITMAP
10
92
54
38
54
92
10
ENDCHAR
STARTCHAR plus
ENCODING 43
SWIDTH 625 0
DWIDTH 10 0
BBX 7 7 1 4
BITMAP
10
10
10
FE
10
10
10
ENDCHAR
STARTCHAR comma
ENCODING 44
SWIDTH 625 0
DWIDTH 10 0
BBX 3 3 3 -2
BITMAP
20
40
80
ENDCHAR
STARTCHAR hyphen
ENCODING 45
SWIDTH 625 0
DWIDTH 10 0
BBX 7 1 1 7
BITMAP
FE
ENDCHAR
STARTCHAR period
ENCODING 46
SWIDTH 625 0
DWIDTH 10 0
BBX 1 1 4 0
BITMAP
80
ENDCHAR
STARTCHAR slash
ENCODING 47
SWIDTH 625 0
DWIDTH 10 0
BBX 9 9 0 3
BITMAP
0080
0100
0200
0400
0800
1000
2000
4000
8000
ENDCHAR
STARTCHAR zero
ENCODING 48
SWIDTH 625 0
DWIDTH 10 0
BBX 9 15 0 0
BITMAP
3E00
4100
8080
8080
8180
8280
8480
8880
9080
A080
C080
8080
8080
4100
3E00
ENDCHAR
STARTCHAR one
ENCODING 49
SWIDTH 625 0
DWIDTH 10 0
BBX 7 15 1 0
BITMAP
10
30
50
90
10
10
10
10
10
10
10
10
10
10
FE
ENDCHAR
STARTCHAR two
ENCODING 50
SWIDTH 625 0
DWIDTH 10 0
BBX 9 15 0 0
BITMAP
3E00
4100
8080
0080
0080
0100
0200
0400
0800
1000
2000
4000
8000
8000
FF80
ENDCHAR
STARTCHAR three
ENCODING 51
SWIDTH 625 0
DWIDTH 10 0
BBX 9 15 0 0
BITMAP
3E00
4100
8080
0080
0080
0080
0100
0E00
0100
0080
0080
0080
8080
4100
3E00
ENDCHAR
STARTCHAR four
ENCODING 52
SWIDTH 625 0
DWIDTH 10 0
BBX 9 15 0 0
BITMAP
0200
0600
0A00
1200
2200
4200
8200
FF80
0200
0200
0200
0200
0200
0200
0200
ENDCHAR
STARTCHAR five
ENCODING 53
SWIDTH 625 0
DWIDTH 10 0
BBX 9 15 0 0
BITMAP
FF80
8000
8000
8000
8000
8000
8000
FE00
0100
0080
0080
0080
8080
4100
3E00
ENDCHAR
STARTCHAR six
ENCODING 54
SWIDTH 625 0
DWIDTH 10 0
BBX 9 15 0 0
BITMAP
3E00
4100
8080
8000
8000
8000
8000
FE00
8100
8080
8080
8080
8080
4100
3E00
ENDCHAR
STARTCHAR seven
ENCODING 55
SWIDTH 625 0
DWIDTH 10 0
BBX 8 15 1 0
BITMAP
FF
01
01
01
02
04
08
10
10
10
10
10
10
10
10
ENDCHAR
STARTCHAR eight
ENCODING 56
SWIDTH 625 0
DWIDTH 10 0
BBX 9 15 0 0
BITMAP
3E00
4100
8080
8080
8080
8080
4100
3E00
4100
8080
8080
8080
8080
4100
3E00
ENDCHAR
STARTCHAR nine
ENCODING 57
SWIDTH 625 0
DWIDTH 10 0
BBX 9 15 0 0
BITMAP
3E00
4100
8080
8080
8080
8080
4080
3F80
0080
0080
0080
0080
8080
4100
3E00
ENDCHAR
STARTCHAR colon
ENCODING 58
SWIDTH 625 0
DWIDTH 10 0
BBX 1 9 4 3
BITMAP
80
00
00
00
00
00
00
00
80
ENDCHAR
STARTCHAR semicolon
ENCODING 59
SWIDTH 625 0
DWIDTH 10 0
BBX 3 14 3 -2
BITMAP
20
00
00
00
00
00
00
00
00
00
00
20
40
80
ENDCHAR
STARTCHAR less
ENCODING 60
SWIDTH 625 0
DWIDTH 10 0
BBX 5 9 2 3
BITMAP
08
10
20
40
80
40
20
10
08
ENDCHAR
STARTCHAR equal
ENCODING 61
SWIDTH 625 0
DWIDTH 10 0
BBX 7 5 1 5
BITMAP
FE
00
00
00
FE
ENDCHAR
STARTCHAR greater
ENCODING 62
SWIDTH 625 0
DWIDTH 10 0
BBX 5 9 2 3
BITMAP
80
40
20
10
08
10
20
40
80
ENDCHAR
STARTCHAR question
ENCODING 63
SWIDTH 625 0
DWIDTH 10 0
BBX 9 15 0 0
BITMAP
3E00
4100
8080
0080
0080
0100
0200
0400
0800
0800
0800
0000
0000
0000
0800
ENDCHAR
STARTCHAR at
ENCODING 64
SWIDTH 625 0
DWIDTH 10 0
BBX 9 15 0 0
BITMAP
3E00
4100
8080
8080
8780
8880
8880
8880
8880
8880
8780
8000
8000
4000
3F00
ENDCHAR
STARTCHAR A
ENCODING 65
SWIDTH 625 0
DWIDTH 10 0
BBX 9 15 0 0
BITMAP
3E00
4100
8080
8080
8080
8080
8080
FF80
8080
8080
8080
8080
8080
8080
8080
ENDCHAR
STARTCHAR B
ENCODING 66
SWIDTH 625 0
DWIDTH 10 0
BBX 9 15 0 0
BITMAP
FE00
8100
8080
8080
8080
8080
8100
FE00
8100
8080
8080
8080
8080
8100
FE00
ENDCHAR
STARTCHAR C
ENCODING 67
SWIDTH 625 0
DWIDTH 10 0
BBX 9 15 0 0
BITMAP
3E00
4100
8080
8000
8000
8000
8000
8000
8000
8000
8000
8000
8080
4100
3E00
ENDCHAR
STARTCHAR D
ENCODING 68
SWIDTH 625 0
DWIDTH 10 0
BBX 9 15 0 0
BITMAP
FE00
8100
8080
8080
8080
8080
8080
8080
8080
8080
8080
8080
8080
8100
FE00
ENDCHAR
STARTCHAR E
ENCODING 69
SWIDTH 625 0
DWIDTH 10 0
BBX 9 15 0 0
BITMAP
FF80
8000
8000
8000
8000
8000
8000
FF80
8000
8000
8000
8000
8000
8000
FF80
ENDCHAR
STARTCHAR F
ENCODING 70
SWIDTH 625 0
DWIDTH 10 0
BBX 9 15 0 0
BITMAP
FF80
8000
8000
8000
8000
8000
8000
FF80
8000
8000
8000
8000
8000
8000
8000
ENDCHAR
STARTCHAR G
ENCODING 71
SWIDTH 625 0
DWIDTH 10 0
BBX 9 15 0 0
BITMAP
3E00
4100
8080
8000
8000
8000
8000
8380
8080
8080
8080
8080
8080
4100
3E00
ENDCHAR
STARTCHAR H
ENCODING 72
SWIDTH 625 0
DWIDTH 10 0
BBX 9 15 0 0
BITMAP
8080
8080
8080
8080
8080
8080
8080
FF80
8080
8080
8080
8080
8080
8080
8080
ENDCHAR
STARTCHAR I
ENCODING 73
SWIDTH 625 0
DWIDTH 10 0
BBX 9 15 0 0
BITMAP
FF80
0800
0800
0800
0800
0800
0800
0800
0800
0800
0800
0800
0800
0800
FF80
ENDCHAR
STARTCHAR J
ENCODING 74
SWIDTH 625 0
DWIDTH 10 0
BBX 9 15 0 0
BITMAP
0080
0080
0080
0080
0080
0080
0080
0080
0080
0080
0080
0080
8080
4100
3E00
ENDCHAR
STARTCHAR K
ENCODING 75
SWIDTH 625 0
DWIDTH 10 0
BBX 9 15 0 0
BITMAP
8080
8100
8200
8400
8800
9000
A000
C000
A000
9000
8800
8400
8200
8100
8080
ENDCHAR
STARTCHAR L
ENCODING 76
SWIDTH 625 0
DWIDTH 10 0
BBX 9 15 0 0
BITMAP
8000
8000
8000
8000
8000
8000
8000
8000
8000
8000
8000
8000
8000
8000
FF80
ENDCHAR
STARTCHAR M
ENCODING 77
SWIDTH 625 0
DWIDTH 10 0
BBX 9 15 0 0
BITMAP
8080
C180
A280
9480
8880
8080
8080
8080
8080
8080
8080
8080
8080
8080
8080
ENDCHAR
STARTCHAR N
ENCODING 78
SWIDTH 625 0
DWIDTH 10 0
BBX 9 15 0 0
BITMAP
8080
C080
A080
9080
8880
8480
8280
8180
8080
8080
8080
8080
8080
8080
8080
ENDCHAR
STARTCHAR O
ENCODING 79
SWIDTH 625 0
DWIDTH 10 0
BBX 9 15 0 0
BITMAP
3E00
4100
8080
8080
8080
8080
8080
8080
8080
8080
8080
8080
8080
4100
3E00
ENDCHAR
STARTCHAR P
ENCODING 80
SWIDTH 625 0
DWIDTH 10 0
BBX 9 15 0 0
BITMAP
FE00
8100
8080
8080
8080
8080
8100
FE00
8000
8000
8000
8000
8000
8000
8000
ENDCHAR
STARTCHAR Q
ENCODING 81
SWIDTH 625 0
DWIDTH 10 0
BBX 9 15 0 0
BITMAP
3E00
4100
8080
8080
8080
8080
8080
8080
8080
8080
8080
8080
8280
4100
3E80
ENDCHAR
STARTCHAR R
ENCODING 82
SWIDTH 625 0
DWIDTH 10 0
BBX 9 15 0 0
BITMAP
FE00
8100
8080
8080
8080
8080
8100
FE00
8100
8080
8080
8080
8080
8080
8080
ENDCHAR
STARTCHAR S
ENCODING 83
SWIDTH 625 0
DWIDTH 10 0
BBX 9 15 0 0
BITMAP
3E00
4100
8080
8000
8000
8000
4000
3E00
0100
0080
0080
0080
8080
4100
3E00
ENDCHAR
STARTCHAR T
ENCODING 84
SWIDTH 625 0
DWIDTH 10 0
BBX 9 15 0 0
BITMAP
FF80
0800
0800
0800
0800
0800
0800
0800
0800
0800
0800
0800
0800
0800
0800
ENDCHAR
STARTCHAR U
ENCODING 85
SWIDTH 625 0
DWIDTH 10 0
BBX 9 15 0 0
BITMAP
8080
8080
8080
8080
8080
8080
8080
8080
8080
8080
8080
8080
8080
4100
3E00
ENDCHAR
STARTCHAR V
ENCODING 86
SWIDTH 625 0
DWIDTH 10 0
BBX 9 15 0 0
BITMAP
8080
8080
8080
8080
8080
8080
8080
8080
8080
8080
8080
4100
2200
1400
0800
ENDCHAR
STARTCHAR W
ENCODING 87
SWIDTH 625 0
DWIDTH 10 0
BBX 9 15 0 0
BITMAP
8080
8080
8080
8080
8080
8080
8080
8080
8080
8080
8880
9480
A280
C180
8080
ENDCHAR
STARTCHAR X
ENCODING 88
SWIDTH 625 0
DWIDTH 10 0
BBX 9 15 0 0
BITMAP
8080
8080
8080
8080
4100
2200
1400
0800
1400
2200
4100
8080
8080
8080
8080
ENDCHAR
STARTCHAR Y
ENCODING 89
SWIDTH 625 0
DWIDTH 10 0
BBX 9 15 0 0
BITMAP
8080
8080
8080
8080
4100
2200
1400
0800
0800
0800
0800
0800
0800
0800
0800
ENDCHAR
STARTCHAR Z
ENCODING 90
SWIDTH 625 0
DWIDTH 10 0
BBX 9 15 0 0
BITMAP
FF80
0080
0080
0080
0100
0200
0400
0800
1000
2000
4000
8000
8000
8000
FF80
ENDCHAR
STARTCHAR bracketleft
ENCODING 91
SWIDTH 625 0
DWIDTH 10 0
BBX 5 21 2 -6
BITMAP
F8
80
80
80
80
80
80
80
80
80
80
80
80
80
80
80
80
80
80
80
F8
ENDCHAR
STARTCHAR backslash
ENCODING 92
SWIDTH 625 0
DWIDTH 10 0
BBX 9 9 0 3
BITMAP
8000
4000
2000
1000
0800
0400
0200
0100
0080
ENDCHAR
STARTCHAR bracketright
ENCODING 93
SWIDTH 625 0
DWIDTH 10 0
BBX 5 21 2 -6
BITMAP
F8
08
08
08
08
08
08
08
08
08
08
08
08
08
08
08
08
08
08
08
F8
ENDCHAR
STARTCHAR asciicircum
ENCODING 94
SWIDTH 625 0
DWIDTH 10 0
BBX 5 3 2 12
BITMAP
20
50
88
ENDCHAR
STARTCHAR underscore
ENCODING 95
SWIDTH 625 0
DWIDTH 10 0
BBX 9 1 0 0
BITMAP
FF80
ENDCHAR
STARTCHAR grave
ENCODING 96
SWIDTH 625 0
DWIDTH 10 0
BBX 3 3 3 12
BITMAP
80
40
20
ENDCHAR
STARTCHAR a
ENCODING 97
SWIDTH 625 0
DWIDTH 10 0
BBX 7 9 1 0
BITMAP
78
04
02
3E
42
82
82
42
3E
ENDCHAR
STARTCHAR b
ENCODING 98
SWIDTH 625 0
DWIDTH 10 0
BBX 7 15 1 0
BITMAP
80
80
80
80
80
80
F8
84
82
82
82
82
82
84
F8
ENDCHAR
STARTCHAR c
ENCODING 99
SWIDTH 625 0
DWIDTH 10 0
BBX 7 9 1 0
BITMAP
38
44
82
80
80
80
82
44
38
ENDCHAR
STARTCHAR d
ENCODING 100
SWIDTH 625 0
DWIDTH 10 0
BBX 7 15 1 0
BITMAP
02
02
02
02
02
02
3E
42
82
82
82
82
82
42
3E
ENDCHAR
STARTCHAR e
ENCODING 101
SWIDTH 625 0
DWIDTH 10 0
BBX 7 9 1 0
BITMAP
38
44
82
82
FE
80
82
44
38
ENDCHAR
STARTCHAR f
ENCODING 102
SWIDTH 625 0
DWIDTH 10 0
BBX 7 15 1 0
BITMAP
0E
10
20
20
20
20
F8
20
20
20
20
20
20
20
20
ENDCHAR
STARTCHAR g
ENCODING 103
SWIDTH 625 0
DWIDTH 10 0
BBX 7 15 1 -6
BITMAP
3E
42
82
82
82
82
82
42
3E
02
02
02
02
04
38
ENDCHAR
STARTCHAR h
ENCODING 104
SWIDTH 625 0
DWIDTH 10 0
BBX 7 15 1 0
BITMAP
80
80
80
80
80
80
F8
84
82
82
82
82
82
82
82
ENDCHAR
STARTCHAR i
ENCODING 105
SWIDTH 625 0
DWIDTH 10 0
BBX 7 13 1 0
BITMAP
10
00
00
00
F0
10
10
10
10
10
10
10
FE
ENDCHAR
STARTCHAR j
ENCODING 106
SWIDTH 625 0
DWIDTH 10 0
BBX 5 19 2 -6
BITMAP
08
00
00
00
78
08
08
08
08
08
08
08
08
08
08
08
08
10
E0
ENDCHAR
STARTCHAR k
ENCODING 107
SWIDTH 625 0
DWIDTH 10 0
BBX 7 15 1 0
BITMAP
80
80
80
80
80
80
88
90
A0
C0
A0
90
88
84
82
ENDCHAR
STARTCHAR l
ENCODING 108
SWIDTH 625 0
DWIDTH 10 0
BBX 7 15 1 0
BITMAP
F0
10
10
10
10
10
10
10
10
10
10
10
10
10
FE
ENDCHAR
STARTCHAR m
ENCODING 109
SWIDTH 625 0
DWIDTH 10 0
BBX 7 9 1 0
BITMAP
6C
92
92
92
92
92
92
92
92
ENDCHAR
STARTCHAR n
ENCODING 110
SWIDTH 625 0
DWIDTH 10 0
BBX 7 9 1 0
BITMAP
F8
84
82
82
82
82
82
82
82
ENDCHAR
STARTCHAR o
ENCODING 111
SWIDTH 625 0
DWIDTH 10 0
BBX 7 9 1 0
BITMAP
38
44
82
82
82
82
82
44
38
ENDCHAR
STARTCHAR p
ENCODING 112
SWIDTH 625 0
DWIDTH 10 0
BBX 7 15 1 -6
BITMAP
F8
84
82
82
82
82
82
84
F8
80
80
80
80
80
80
ENDCHAR
STARTCHAR q
ENCODING 113
SWIDTH 625 0
DWIDTH 10 0
BBX 7 15 1 -6
BITMAP
3E
42
82
82
82
82
82
42
3E
02
02
02
02
02
02
ENDCHAR
STARTCHAR r
ENCODING 114
SWIDTH 625 0
DWIDTH 10 0
BBX 7 9 1 0
BITMAP
F8
84
82
80
80
80
80
80
80
ENDCHAR
STARTCHAR s
ENCODING 115
SWIDTH 625 0
DWIDTH 10 0
BBX 7 9 1 0
BITMAP
38
44
80
80
7C
02
02
44
38
ENDCHAR
STARTCHAR t
ENCODING 116
SWIDTH 625 0
DWIDTH 10 0
BBX 7 15 1 0
BITMAP
10
10
10
10
10
10
FE
10
10
10
10
10
10
10
10
ENDCHAR
STARTCHAR u
ENCODING 117
SWIDTH 625 0
DWIDTH 10 0
BBX 7 9 1 0
BITMAP
82
82
82
82
82
82
82
44
38
ENDCHAR
STARTCHAR v
ENCODING 118
SWIDTH 625 0
DWIDTH 10 0
BBX 7 9 1 0
BITMAP
82
82
82
82
82
82
44
28
10
ENDCHAR
STARTCHAR w
ENCODING 119
SWIDTH 625 0
DWIDTH 10 0
BBX 7 9 1 0
BITMAP
92
92
92
92
92
92
92
92
6C
ENDCHAR
STARTCHAR x
ENCODING 120
SWIDTH 625 0
DWIDTH 10 0
BBX 7 9 1 0
BITMAP
82
82
44
28
10
28
44
82
82
ENDCHAR
STARTCHAR y
ENCODING 121
SWIDTH 625 0
DWIDTH 10 0
BBX 7 15 1 -6
BITMAP
82
82
82
82
82
82
82
42
3E
02
02
02
02
04
38
ENDCHAR
STARTCHAR z
ENCODING 122
SWIDTH 625 0
DWIDTH 10 0
BBX 7 9 1 0
BITMAP
FE
02
04
08
10
20
40
80
FE
ENDCHAR
STARTCHAR braceleft
ENCODING 123
SWIDTH 625 0
DWIDTH 10 0
BBX 5 21 2 -6
BITMAP
08
10
20
20
20
20
20
20
20
40
80
40
20
20
20
20
20
20
20
10
08
ENDCHAR
STARTCHAR bar
ENCODING 124
SWIDTH 625 0
DWIDTH 10 0
BBX 1 21 4 -6
BITMAP
80
80
80
80
80
80
80
80
80
80
80
80
80
80
80
80
80
80
80
80
80
ENDCHAR
STARTCHAR braceright
ENCODING 125
SWIDTH 625 0
DWIDTH 10 0
BBX 5 21 2 -6
BITMAP
80
40
20
20
20
20
20
20
20
10
08
10
20
20
20
20
20
20
20
40
80
ENDCHAR
STARTCHAR asciitilde
ENCODING 126
SWIDTH 625 0
DWIDTH 10 0
BBX 9 5 0 5
BITMAP
2000
5000
8880
0500
0200
ENDCHAR
STARTCHAR logicalnot
ENCODING 172
SWIDTH 625 0
DWIDTH 10 0
BBX 9 5 0 5
BITMAP
FF80
0080
0080
0080
0080
ENDCHAR
STARTCHAR periodcentered
ENCODING 183
SWIDTH 625 0
DWIDTH 10 0
BBX 1 1 4 7
BITMAP
80
ENDCHAR
STARTCHAR multiply
ENCODING 215
SWIDTH 625 0
DWIDTH 10 0
BBX 5 5 2 5
BITMAP
88
50
20
50
88
ENDCHAR
STARTCHAR Pi
ENCODING 928
SWIDTH 625 0
DWIDTH 10 0
BBX 9 15 0 0
BITMAP
FF80
4100
4100
4100
4100
4100
4100
4100
4100
4100
4100
4100
4100
4100
E380
ENDCHAR
STARTCHAR Sigma
ENCODING 931
SWIDTH 625 0
DWIDTH 10 0
BBX 9 15 0 0
BITMAP
FF80
4080
2000
1000
0800
0400
0200
0100
0200
0400
0800
1000
2000
4080
FF80
ENDCHAR
STARTCHAR alpha
ENCODING 945
SWIDTH 625 0
DWIDTH 10 0
BBX 9 11 0 -1
BITMAP
0080
3C80
4280
8100
8100
8100
8100
8100
4280
3C80
0080
ENDCHAR
STARTCHAR beta
ENCODING 946
SWIDTH 625 0
DWIDTH 10 0
BBX 9 21 0 -6
BITMAP
7C00
8200
8100
8100
8100
8200
8400
8400
8200
8100
8080
8080
8080
8100
FE00
8000
8000
8000
8000
8000
8000
ENDCHAR
STARTCHAR epsilon
ENCODING 949
SWIDTH 625 0
DWIDTH 10 0
BBX 6 9 2 0
BITMAP
78
84
80
80
78
80
80
84
78
ENDCHAR
STARTCHAR theta
ENCODING 952
SWIDTH 625 0
DWIDTH 10 0
BBX 9 15 0 0
BITMAP
3E00
4100
8080
8080
8080
8080
8080
FF80
8080
8080
8080
8080
8080
4100
3E00
ENDCHAR
STARTCHAR phi
ENCODING 966
SWIDTH 625 0
DWIDTH 10 0
BBX 9 15 0 0
BITMAP
0200
0500
8880
8880
8880
8880
8880
8880
4900
3E00
0800
0800
0800
0800
0800
ENDCHAR
STARTCHAR psi
ENCODING 968
SWIDTH 625 0
DWIDTH 10 0
BBX 9 15 0 0
BITMAP
8880
4900
4900
4900
4900
4900
4900
4900
4900
3E00
0800
0800
0800
0800
0800
ENDCHAR
STARTCHAR quotedblleft
ENCODING 8220
SWIDTH 625 0
DWIDTH 10 0
BBX 5 3 2 12
BITMAP
A0
50
28
ENDCHAR
STARTCHAR quotedblright
ENCODING 8221
SWIDTH 625 0
DWIDTH 10 0
BBX 5 3 2 12
BITMAP
28
50
A0
ENDCHAR
STARTCHAR uni2102
ENCODING 8450
SWIDTH 625 0
DWIDTH 10 0
BBX 9 15 0 0
BITMAP
3E00
6100
A080
A000
A000
A000
A000
A000
A000
A000
A000
A000
A080
6100
3E00
ENDCHAR
STARTCHAR uni2115
ENCODING 8469
SWIDTH 625 0
DWIDTH 10 0
BBX 9 15 0 0
BITMAP
C080
A080
D080
A880
9480
8A80
8580
8280
8180
8080
8080
8080
8080
8080
8080
ENDCHAR
STARTCHAR uni211A
ENCODING 8474
SWIDTH 625 0
DWIDTH 10 0
BBX 9 15 0 0
BITMAP
3E00
6100
A080
A080
A080
A080
A080
A080
A080
A080
A080
A080
A280
6100
3E80
ENDCHAR
STARTCHAR uni211D
ENCODING 8477
SWIDTH 625 0
DWIDTH 10 0
BBX 9 15 0 0
BITMAP
FE00
A100
A080
A080
A080
A080
A100
BE00
A100
A080
A080
A080
A080
A080
E080
ENDCHAR
STARTCHAR uni2124
ENCODING 8484
SWIDTH 625 0
DWIDTH 10 0
BBX 9 15 0 0
BITMAP
FF80
0080
0080
0180
0280
0500
0A00
1400
2800
5000
A000
C000
8000
8000
FF80
ENDCHAR
STARTCHAR arrowleft
ENCODING 8592
SWIDTH 625 0
DWIDTH 10 0
BBX 9 5 0 5
BITMAP
2000
4000
BF80
4000
2000
ENDCHAR
STARTCHAR arrowright
ENCODING 8594
SWIDTH 625 0
DWIDTH 10 0
BBX 9 5 0 5
BITMAP
0200
0100
FE80
0100
0200
ENDCHAR
STARTCHAR arrowboth
ENCODING 8596
SWIDTH 625 0
DWIDTH 10 0
BBX 9 5 0 5
BITMAP
2200
4100
BE80
4100
2200
ENDCHAR
STARTCHAR universal
ENCODING 8704
SWIDTH 1000 0
DWIDTH 16 0
BBX 15 15 0 0
BITMAP
C006
4004
4004
2008
2008
1010
1010
0FE0
0820
0440
0440
0280
0280
0100
0100
ENDCHAR
STARTCHAR partialdiff
ENCODING 8706
SWIDTH 625 0
DWIDTH 10 0
BBX 23 21 1 0
BITMAP
000002
000000
000000
000000
000000
000000
000000
700000
080000
040000
020000
020000
3A0000
460000
820000
820000
820000
820000
820000
440000
380000
ENDCHAR
STARTCHAR existential
ENCODING 8707
SWIDTH 1250 0
DWIDTH 20 0
BBX 9 15 5 0
BITMAP
FF80
0080
0080
0080
0080
0080
0080
FF80
0080
0080
0080
0080
0080
0080
FF80
ENDCHAR
STARTCHAR emptyset
ENCODING 8709
SWIDTH 625 0
DWIDTH 10 0
BBX 9 9 0 3
BITMAP
3E80
4100
8280
8480
8880
9080
A080
4100
BE00
ENDCHAR
STARTCHAR element
ENCODING 8712
SWIDTH 625 0
DWIDTH 10 0
BBX 7 13 1 1
BITMAP
1E
20
40
80
80
80
FE
80
80
80
40
20
1E
ENDCHAR
STARTCHAR notelement
ENCODING 8713
SWIDTH 625 0
DWIDTH 10 0
BBX 9 13 0 1
BITMAP
0F00
1000
2080
4100
4200
4400
7F00
5000
6000
4000
A000
1000
0F00
ENDCHAR
STARTCHAR infinity
ENCODING 8734
SWIDTH 1000 0
DWIDTH 16 0
BBX 15 7 0 4
BITMAP
3838
4444
8282
8102
8282
4444
3838
ENDCHAR
STARTCHAR logicaland
ENCODING 8743
SWIDTH 625 0
DWIDTH 10 0
BBX 9 10 0 3
BITMAP
0800
0800
1400
1400
2200
2200
4100
4100
8080
8080
ENDCHAR
STARTCHAR logicalor
ENCODING 8744
SWIDTH 625 0
DWIDTH 10 0
BBX 9 10 0 3
BITMAP
8080
8080
4100
4100
2200
2200
1400
1400
0800
0800
ENDCHAR
STARTCHAR intersection
ENCODING 8745
SWIDTH 625 0
DWIDTH 10 0
BBX 9 11 0 0
BITMAP
3E00
4100
8080
8080
8080
8080
8080
8080
8080
8080
8080
ENDCHAR
STARTCHAR union
ENCODING 8746
SWIDTH 625 0
DWIDTH 10 0
BBX 9 11 0 0
BITMAP
8080
8080
8080
8080
8080
8080
8080
8080
8080
4100
3E00
ENDCHAR
STARTCHAR notequal
ENCODING 8800
SWIDTH 625 0
DWIDTH 10 0
BBX 9 9 0 3
BITMAP
0080
0100
7F00
0400
0800
1000
7F00
4000
8000
ENDCHAR
STARTCHAR equivalence
ENCODING 8801
SWIDTH 625 0
DWIDTH 10 0
BBX 7 5 1 5
BITMAP
FE
00
FE
00
FE
ENDCHAR
STARTCHAR lessequal
ENCODING 8804
SWIDTH 625 0
DWIDTH 10 0
BBX 5 11 2 1
BITMAP
08
10
20
40
80
40
20
10
08
00
F8
ENDCHAR
STARTCHAR greaterequal
ENCODING 8805
SWIDTH 625 0
DWIDTH 10 0
BBX 5 11 2 1
BITMAP
80
40
20
10
08
10
20
40
80
00
F8
ENDCHAR
STARTCHAR propersubset
ENCODING 8834
SWIDTH 625 0
DWIDTH 10 0
BBX 9 11 0 2
BITMAP
1F80
2000
4000
8000
8000
8000
8000
8000
4000
2000
1F80
ENDCHAR
STARTCHAR reflexsubset
ENCODING 8838
SWIDTH 625 0
DWIDTH 10 0
BBX 9 13 0 0
BITMAP
1F80
2000
4000
8000
8000
8000
8000
8000
4000
2000
1F80
0000
7F80
ENDCHAR
STARTCHAR uni22C2
ENCODING 8898
SWIDTH 625 0
DWIDTH 10 0
BBX 9 17 0 -2
BITMAP
3E00
4100
8080
8080
8080
8080
8080
8080
8080
8080
8080
8080
8080
8080
8080
8080
8080
ENDCHAR
STARTCHAR uni22C3
ENCODING 8899
SWIDTH 625 0
DWIDTH 10 0
BBX 9 17 0 -2
BITMAP
8080
8080
8080
8080
8080
8080
8080
8080
8080
8080
8080
8080
8080
8080
8080
4100
3E00
ENDCHAR
STARTCHAR uni27E8
ENCODING 10216
SWIDTH 625 0
DWIDTH 10 0
BBX 5 21 2 -6
BITMAP
08
08
10
10
20
20
40
40
80
80
80
80
80
40
40
20
20
10
10
08
08
ENDCHAR
STARTCHAR uni27E9
ENCODING 10217
SWIDTH 625 0
DWIDTH 10 0
BBX 5 21 2 -6
BITMAP
80
80
40
40
20
20
10
10
08
08
08
08
08
10
10
20
20
40
40
80
80
ENDCHAR
ENDFONT
